<?xml version="1.0" ?><svg id="Layer_1" style="enable-background:new 0 0 120 120;" version="1.1" viewBox="0 0 120 120" xml:space="preserve" xmlns="http://www.w3.org/2000/svg" xmlns:xlink="http://www.w3.org/1999/xlink"><style type="text/css">
	.st0{fill:#232323;}
	.st1{fill:#FFFCF1;}
	.st2{fill:#64E291;}
	.st3{fill:#FFCA3B;}
	.st4{fill:#64A1FF;}
	.st5{fill:#3D3D3D;}
	.st6{fill:#FFC91D;}
	.st7{fill:#EDB61D;}
	.st8{fill:#FFF1E1;}
	.st9{fill:#F87474;}
	.st10{fill:#EDDFD1;}
	.st11{fill:#E26D6D;}
</style><g><g><path class="st0" d="M33.4,55.7V43.5h39.4v12.2c0,2.1-9.9,7.1-19.8,7.1S33.4,57.8,33.4,55.7z"/><g><path class="st1" d="M29.9,74.1h49.4V58.4H29.9c-4.3,0-7.8,3.4-7.8,7.8l0,0C22.2,70.5,25.6,74.1,29.9,74.1z"/><path class="st2" d="M29.7,76.3c-5.6,0-10.1-4.5-10.1-10.1c0-5.6,4.5-10.1,10.1-10.1h49.5c1.1,0,2.1,1,2.1,2.1     c0,1.1-1,2.1-2.1,2.1H29.7c-3.2,0-5.7,2.6-5.7,5.7s2.6,5.7,5.7,5.7h49.5c1.1,0,2.1,1,2.1,2.1c0,1.1-1,2.1-2.1,2.1H29.7V76.3z"/><polygon class="st3" points="39.2,69.4 35.4,66.8 31.7,69.4 31.7,60.6 39.2,60.6    "/><path class="st1" d="M29.9,94.1h49.4V78.5H29.9c-4.3,0-7.8,3.4-7.8,7.8l0,0C22.2,90.5,25.6,94.1,29.9,94.1z"/><path class="st4" d="M29.7,96.4c-5.6,0-10.1-4.5-10.1-10.1s4.5-10.1,10.1-10.1h49.5c1.1,0,2.1,1,2.1,2.1s-1,2.1-2.1,2.1H29.7     c-3.2,0-5.7,2.6-5.7,5.7s2.6,5.7,5.7,5.7h49.5c1.1,0,2.1,1,2.1,2.1s-1,2.1-2.1,2.1C79.2,96.4,29.7,96.4,29.7,96.4z"/><polygon class="st3" points="74.7,89.3 71,86.8 67.3,89.3 67.3,80.7 74.7,80.7    "/></g><path class="st5" d="M17.2,38.2l35.4,11.7c0.4,0.2,0.8,0.2,1.1,0L89,38.2c1.6-0.5,1.6-2.8,0-3.4L53.8,23.7c-0.3-0.1-0.7-0.1-1.1,0    L17.4,34.8C15.7,35.4,15.6,37.6,17.2,38.2z"/><g><path class="st6" d="M80.6,50.9c0.5,0,1-0.4,1-1v-8.9c0-0.4-0.4-0.9-0.9-1L53.2,36c-0.5-0.1-1,0.3-1.1,0.9     c-0.1,0.5,0.3,1,0.9,1.1l26.5,3.9v8.1C79.5,50.5,80,50.9,80.6,50.9z"/></g><path class="st6" d="M82.4,58.1h-3.4c-0.7,0-1.2-0.7-1-1.3l1.5-5.4h2.3l1.5,5.4C83.6,57.4,83.1,58.1,82.4,58.1z"/><ellipse class="st7" cx="53.1" cy="36.8" rx="3.4" ry="1.9"/><circle class="st7" cx="80.5" cy="50.9" r="2.4"/></g><g><path class="st8" d="M103.3,69c1.5,4.2,0.5,8.3-2,9.2L54.1,94.6c-2.6,0.9-5.8-1.7-7.3-5.9c-1.5-4.2-0.5-8.3,2-9.2L95.9,63    C98.6,62.2,101.8,64.9,103.3,69z"/><path class="st9" d="M85.8,75.1c1.5,4.2,0.5,8.3-2,9.2l-9,3.1c2.6-0.9,3.5-5.1,2-9.2c-1.5-4.2-4.7-6.9-7.3-5.9l9-3.1    C81.1,68.2,84.4,70.9,85.8,75.1z"/><ellipse class="st10" cx="51.4" cy="87.1" rx="5" ry="8" transform="matrix(0.9444 -0.3289 0.3289 0.9444 -25.7739 21.7618)"/><polygon class="st11" points="85.7,92.1 79.6,90.5 75.8,95.5 73.2,88 83.1,84.6   "/></g></g></svg>